<svg id="Calque_1" data-name="Calque 1" xmlns="http://www.w3.org/2000/svg" viewBox="0 0 709.46 740.25"><defs><style>.cls-1{fill:#a1958b;}.cls-2{fill:#8a8179;}.cls-3{fill:#9dff1f;}.cls-3,.cls-4{stroke:#000;stroke-width:0.25px;}.cls-12,.cls-3,.cls-4{stroke-miterlimit:10;}.cls-12,.cls-4{fill:none;}.cls-5{fill:#b0a69a;}.cls-6{fill:#a1978c;}.cls-7{fill:#ebdfcf;}.cls-8{fill:#bdb3a6;}.cls-9{fill:#756e66;}.cls-10{fill:#fff;}.cls-11{fill:#3d3a35;}.cls-12{stroke:#3d3a35;stroke-width:7px;}.cls-13{fill:#fffffc;}.cls-14{fill:#79bdeb;}.cls-15{fill:#000407;}.cls-16{fill:#6c5b3e;}.cls-17{fill:#ede9e3;}.cls-18{fill:#292824;}.cls-19{fill:#d9d5d0;}.cls-20{fill:#7f4c28;}.cls-21{fill:#472323;}.cls-22{fill:#1c1b19;}.cls-23{fill:#fff3dd;}.cls-24{fill:#db6366;}.cls-25{fill:#ba5457;}</style></defs><path class="cls-1" d="M697.68,702.28a109.68,109.68,0,0,0-26,43.12,107.79,107.79,0,0,0-5,30c6.35-5.63,23-18.84,46-20a57.87,57.87,0,0,1,23,3c10.42,3.68,14.41,8.74,23,15,3.44,2.5,22,16,43,18,6.85.66,22.83,1,42.52-11l-9.05-96.23Z" transform="translate(-591.23 -145.47)"/><path class="cls-2" d="M741.18,452.9a75.8,75.8,0,0,1-15-1c-21.81-3.78-37.63-16.94-47.61-27.51a70.73,70.73,0,0,0,34.61,80.51c9.52,29.93,37.63,48.37,65,45,20.68-2.55,38.66-17.26,47.25-37.77C784,463.59,757.83,452.85,741.18,452.9Z" transform="translate(-591.23 -145.47)"/><path class="cls-1" d="M792.39,527.4c-9.81-9.95-52.95-51.42-119.21-52.5a167.56,167.56,0,0,0-81.95,20.33,116,116,0,0,1,25.95,21.67c25,28,31.05,63.27,36,94,5.18,32.12,1.25,37,9,55a113.49,113.49,0,0,0,37,46c29.28,21.19,60.52,21.57,81,22a175.73,175.73,0,0,0,45.25-5q32.87-44,65.75-88c.39-11.48-.46-35.58-15-60C849.55,536.17,799.63,528.4,792.39,527.4Z" transform="translate(-591.23 -145.47)"/><path class="cls-2" d="M844.2,780.35A61.08,61.08,0,0,1,798.61,791a72.59,72.59,0,0,1-23.93-7.61c-5.69-3-10.95-6.86-18-12-7.93-5.8-9.37-7.48-14-10a54.8,54.8,0,0,0-18-6,69.58,69.58,0,0,1,11-2c26.63-2.65,40.65,11.7,61,14,10.25,1.15,25.32-.39,45-13.68Q843,767,844.2,780.35Z" transform="translate(-591.23 -145.47)"/><path class="cls-1" d="M1137.82,305.72a113.89,113.89,0,0,1,60.86-11.32,69.22,69.22,0,0,0-11,42,68.44,68.44,0,0,0,11,32.5l-76.5,32Z" transform="translate(-591.23 -145.47)"/><path class="cls-1" d="M1190.68,666.4a177.54,177.54,0,0,0,66,46,174.13,174.13,0,0,0,44,11,97.79,97.79,0,0,1-22,31c-5.56,5.23-11.89,11.18-22,15-8.42,3.18-16.39,3.16-32,3-20.22-.21-22-2.74-34-1-9.43,1.36-16.92,3.91-26,7-19,6.48-24.76,9.74-32,12-11.67,3.64-29.53,4.86-56-7l-24.5-24Z" transform="translate(-591.23 -145.47)"/><path class="cls-1" d="M1079.58,550.65a339,339,0,0,1,74.1,2.75c40.58,6.06,58.94,16.6,84,9,21.37-6.49,35.56-22.5,44.21-35,4.59,15.69,11.79,48.94-1.21,85-14.15,39.26-44.15,59.35-72,78-46.84,31.37-95.12,43.5-132,48-45-12.66-75-54.93-72-100C1007.45,596.77,1037.79,560.9,1079.58,550.65Z" transform="translate(-591.23 -145.47)"/><path class="cls-1" d="M1122.18,408.08a76.37,76.37,0,0,1,19.5-23.68c7.15-5.71,20.52-14.12,63-18a386.89,386.89,0,0,1,70,0,128.56,128.56,0,0,0-7,20c-4.56,17.6-3.59,29.42-3,55,.74,31.87,1,48.05-2,60-5.21,20.46-13.8,32-17,36a88,88,0,0,1-23,20c-18,11.46-41.81,28.14-75.53,53.71l-134.29-37.6Z" transform="translate(-591.23 -145.47)"/><path class="cls-2" d="M1160.43,297.38a184.36,184.36,0,0,0-7.75,25c-3.46,14.87-7,29.92-1,34,3.06,2.08,7.71.39,17-3a98.61,98.61,0,0,0,20-10,82.31,82.31,0,0,0,6,18,83.68,83.68,0,0,0,4,7.5l-71,25.5,12-89Z" transform="translate(-591.23 -145.47)"/><path class="cls-2" d="M1148.3,495.76c-1,5.44-5.45,32,9.38,44.64,8,6.79,20.44,6.62,45,6a324.18,324.18,0,0,0,37.89-3.18l-28.9,21.36c-16.61-3-29.88-6-39-8.18-11-2.62-17.34-4.42-27-5a101.8,101.8,0,0,0-27,2,118.35,118.35,0,0,0-21,48c-3.53,18.93-1.3,33.68,1,48a219.38,219.38,0,0,0,24.51,70.73,479.83,479.83,0,0,0,47.49-14.73c15.61-5.75,29.8-11.9,42.51-18a162.6,162.6,0,0,1-86.51,55,79.5,79.5,0,0,1-5.88,50.3,94.17,94.17,0,0,1-19.12-1.3,95.2,95.2,0,0,1-25-8,91.71,91.71,0,0,0,8-18c4.64-14.46,5.94-31,1-56-9.76-49.34-38.63-104.81-44-115Z" transform="translate(-591.23 -145.47)"/><path class="cls-3" d="M900.12,442.17" transform="translate(-591.23 -145.47)"/><path class="cls-4" d="M868.18,442.9" transform="translate(-591.23 -145.47)"/><path class="cls-2" d="M658.18,651.9a131.1,131.1,0,0,0,29,31c8.61,6.61,21.47,16.29,41,21,7.9,1.9,30,6.9,55-3a91,91,0,0,0,37-28c28.13-36.25,16.69-82.31,15-88.79l35.71,20.3A208.54,208.54,0,0,1,825.43,728.9a182.4,182.4,0,0,1-39.25,5c-19.59.34-55.28,1-87-22-8.9-6.45-25.2-20.34-37-46Q660.19,658.9,658.18,651.9Z" transform="translate(-591.23 -145.47)"/><path class="cls-2" d="M709.57,671c-2.88.9-6.83-2.66-8.69-5-5.07-6.51-4.42-17-.54-18.46,3.13-1.16,8.72,3.38,11.1,8.15C714.43,661.67,713.26,669.87,709.57,671Z" transform="translate(-591.23 -145.47)"/><path class="cls-2" d="M683.14,652.49c-2.88.9-6.83-2.65-8.69-5-5.07-6.51-4.42-17-.54-18.45,3.13-1.17,8.73,3.37,11.1,8.15C688,643.14,686.83,651.34,683.14,652.49Z" transform="translate(-591.23 -145.47)"/><path class="cls-2" d="M790.59,752.2c.38-2.57,4.62-4.29,7.17-4.83,6.94-1.48,14.82,3,14.48,6.53-.28,2.86-5.9,5.48-10.49,5.52C796,759.47,790.09,755.48,790.59,752.2Z" transform="translate(-591.23 -145.47)"/><path class="cls-2" d="M691.57,747.19c-.73-2.49,2.38-5.84,4.46-7.41,5.67-4.27,14.69-3.56,15.88-.19,1,2.7-3,7.45-7.17,9.43C699.55,751.5,692.51,750.38,691.57,747.19Z" transform="translate(-591.23 -145.47)"/><path class="cls-2" d="M1257.42,738.38c-.65-2.52,2.57-5.76,4.7-7.25,5.82-4.08,14.81-3.06,15.88.34.87,2.74-3.28,7.35-7.48,9.18C1265.24,743,1258.25,741.59,1257.42,738.38Z" transform="translate(-591.23 -145.47)"/><path class="cls-2" d="M1228.69,756c-.1-2.85,4.13-5.55,6.77-6.64,7.2-3,16.59.25,16.93,4.15.28,3.14-5.26,7.09-10.21,8.05C1236,762.78,1228.81,759.66,1228.69,756Z" transform="translate(-591.23 -145.47)"/><path class="cls-2" d="M1166,666.05c-1.07-2.64,2-6.63,4.08-8.56,5.75-5.27,15.68-5.44,17.34-1.89,1.33,2.85-2.52,8.46-6.84,11.06C1175.19,669.92,1167.38,669.43,1166,666.05Z" transform="translate(-591.23 -145.47)"/><path class="cls-2" d="M1202.26,675.18c-1.06-2.64,2-6.63,4.09-8.56,5.75-5.26,15.68-5.44,17.34-1.89,1.33,2.85-2.53,8.46-6.84,11.06C1211.43,679.05,1203.63,678.57,1202.26,675.18Z" transform="translate(-591.23 -145.47)"/><path class="cls-2" d="M1141.26,698.18c-1.06-2.64,2-6.63,4.09-8.56,5.75-5.26,15.68-5.44,17.34-1.89,1.33,2.85-2.53,8.46-6.84,11.06C1150.43,702.05,1142.63,701.57,1141.26,698.18Z" transform="translate(-591.23 -145.47)"/><path class="cls-2" d="M1203.92,535c-1.7-2.29.24-6.92,1.79-9.31,4.23-6.55,13.79-9.23,16.29-6.22,2,2.43-.3,8.83-3.81,12.43C1213.77,536.47,1206.1,538,1203.92,535Z" transform="translate(-591.23 -145.47)"/><path class="cls-2" d="M1229.32,483.37c-2.49-1.39-2.62-6.41-2.19-9.23,1.17-7.71,8.79-14.07,12.31-12.35,2.83,1.39,3.35,8.17,1.62,12.9C1238.89,480.63,1232.51,485.15,1229.32,483.37Z" transform="translate(-591.23 -145.47)"/><path class="cls-2" d="M1238.3,519.27c-2.49-1.39-2.62-6.41-2.19-9.23,1.17-7.71,8.79-14.07,12.31-12.35,2.83,1.38,3.35,8.17,1.62,12.9C1247.87,516.53,1241.48,521.05,1238.3,519.27Z" transform="translate(-591.23 -145.47)"/><path class="cls-5" d="M875.68,598.4a269.78,269.78,0,0,0-48.39,152,39.27,39.27,0,0,0,8.39,22,37.52,37.52,0,0,0,9,8c-6.25,12.5-4,20.29-3,23,6.18,16.43,32.88,19.49,46,21a98.62,98.62,0,0,0,21,0c7-.69,10.49-1,15-3,5.55-2.43,9.36-5.88,15-11,3.5-3.18,6.2-6,8-8l18-1a60.13,60.13,0,0,0,19,15c13.14,6.53,25.1,6.24,35,6,8.72-.22,18.73-.57,30-6,5.91-2.85,14.91-7.19,19-17a27.35,27.35,0,0,0,2-12,32.5,32.5,0,0,0,7-4c10.28-7.76,12.85-19.63,13.57-24a332.9,332.9,0,0,0-4.57-50,342.8,342.8,0,0,0-46-122Z" transform="translate(-591.23 -145.47)"/><path class="cls-6" d="M967.93,729.66l-26.25-.26c.65,4.79,1.68,12.48,3,22,2.14,15.44,2.67,18.71,3,24a137.26,137.26,0,0,1-1,27l18-1a64.22,64.22,0,0,1-5-21c-.2-3.28-.26-8.4,3-26C963.83,748.19,965.52,739.73,967.93,729.66Z" transform="translate(-591.23 -145.47)"/><path class="cls-6" d="M875.68,710.4a135.38,135.38,0,0,0,10,32c1.79,3.9,3.66,7.52,5.57,10.85a63.43,63.43,0,0,1-7.57,6.15,65.72,65.72,0,0,1-23,10,199.22,199.22,0,0,0,15-59Z" transform="translate(-591.23 -145.47)"/><path class="cls-6" d="M1039.68,672.4a228.58,228.58,0,0,0-16,70c-.44,6.77-.55,13.26-.41,19.44,3-.6,16.93-3.14,30.41,5.56a40.94,40.94,0,0,1,16,20,33.36,33.36,0,0,0,20.57-28,30.67,30.67,0,0,1-8.57-1C1047,749.1,1040.31,679.7,1039.68,672.4Z" transform="translate(-591.23 -145.47)"/><path class="cls-6" d="M850.33,736.82a96.48,96.48,0,0,1-.65,12.58c-.22,1.88-.5,3.74-2,5a5.51,5.51,0,0,1-5,1c-3.46-1.11-4.44-6.14-5-9a25.34,25.34,0,0,1,1-13c.22-.32,2.05-2.93,5-3S849.76,733,850.33,736.82Z" transform="translate(-591.23 -145.47)"/><path class="cls-6" d="M982.3,617a140.6,140.6,0,0,1,60.38,17.42,138.37,138.37,0,0,1,29.64,22.26l-32.64-69.26Z" transform="translate(-591.23 -145.47)"/><path class="cls-6" d="M1056.15,669.7c1.67-.7,4.24,1.2,5.49,2.52,3.4,3.6,3.62,9.9,1.38,11-1.8.88-5.41-1.51-7.1-4.23C1053.79,675.57,1054,670.61,1056.15,669.7Z" transform="translate(-591.23 -145.47)"/><path class="cls-6" d="M1063.2,703.76c2.14-.31,4.54,2.65,5.58,4.55,2.86,5.19,1.21,12.55-1.71,13.14-2.34.47-5.79-3.38-6.94-7C1058.7,709.84,1060.45,704.16,1063.2,703.76Z" transform="translate(-591.23 -145.47)"/><path class="cls-6" d="M1083,724c1.82-.36,3.73,2.23,4.54,3.91,2.21,4.59.54,11.32-1.94,12-2,.51-4.76-2.84-5.58-6.11C1079,729.67,1080.65,724.46,1083,724Z" transform="translate(-591.23 -145.47)"/><path class="cls-7" d="M909.51,676.1c2.78-.39,5.9,3.45,7.27,5.9,3.73,6.71,1.62,16.2-2.17,17-3,.6-7.53-4.39-9-9.1C903.7,683.93,906,676.61,909.51,676.1Z" transform="translate(-591.23 -145.47)"/><path class="cls-7" d="M896.05,709.93c2.78-.39,5.91,3.45,7.27,5.9,3.73,6.71,1.62,16.2-2.16,16.95-3,.6-7.54-4.39-9-9.1C890.24,717.76,892.5,710.44,896.05,709.93Z" transform="translate(-591.23 -145.47)"/><path class="cls-7" d="M871.05,664.93c2.78-.39,5.91,3.45,7.27,5.9,3.73,6.71,1.62,16.2-2.16,16.95-3,.6-7.54-4.39-9-9.1C865.24,672.76,867.5,665.44,871.05,664.93Z" transform="translate(-591.23 -145.47)"/><path class="cls-7" d="M883.76,778.29c.52,3.31-4.19,6.75-7.2,8.21-8.24,4-20,.93-21-3.57-.77-3.62,5.33-8.61,11.14-10.09C874,771,883.1,774.08,883.76,778.29Z" transform="translate(-591.23 -145.47)"/><path class="cls-8" d="M1144.68,262.4c-3,48.3-6.47,93.1-10,134,5.83,2.94,18.25,10.28,26,25,15.68,29.75-2.81,61.05-4,63-10.91,15.18-21,27.58-29,37a456.85,456.85,0,0,1-41,43c-13.53,12.38-21.38,19.56-33,27-22.57,14.45-43.19,19.5-58,23-6.8,1.6-62.12,14-123-3-13.45-3.77-23.67-8-44-17-12.87-5.67-19.94-9.43-26-17-2.35-2.95-6.3-8.65-10-23a146.67,146.67,0,0,1-4-48,292.12,292.12,0,0,1-57-58c-22.17-30.1-33.39-57.86-55-114-10.06-26.17-17.78-50-9-57,2.48-2,5.52-1.94,7-2a485.9,485.9,0,0,1,174,25,119.52,119.52,0,0,1,117-24c10.68-23.41,31.84-61,72-92,18-13.93,64.85-50.07,91-35C1139.88,155.84,1150.39,171.89,1144.68,262.4Z" transform="translate(-591.23 -145.47)"/><path class="cls-7" d="M797.32,286.21a24,24,0,0,1-9.64,6.19c-9.72,3.28-18.26-1.07-20-2a30,30,0,0,1,6,11c.65,2.19,4.46,15.13-3,23s-20.17,4.86-24,4a34.68,34.68,0,0,1-10-4q-11,16.5-22,33a15.13,15.13,0,0,1-5-1,16.29,16.29,0,0,1-8-7c7.88,10.42,9.33,22.55,4,30a17.37,17.37,0,0,1-8,6c-.78-1.75-2.22-5-4-9-9.36-21.29-14.91-36.53-26-67a92.59,92.59,0,0,1-3-11c-1.43-6.69-1.36-9.63-1-12a23.79,23.79,0,0,1,2.36-7.23,18.16,18.16,0,0,1,4.64-2.77c4.19-1.71,7.52-1.18,15-1,4.88.11-3.64-.28,9,0,15,.33,25.58.56,33,1C755,278,794.79,285.71,797.32,286.21Z" transform="translate(-591.23 -145.47)"/><path class="cls-7" d="M1025.2,194.77c-3.09,2.72-.8,8.8-.52,13.63.65,11,1,16.53,5,21,6.43,7.12,17,6.1,18,6,12.7-1.4,18.6-13.17,19-14a36.84,36.84,0,0,0-1,19,36.36,36.36,0,0,0,5,12c3.27,3,23.69,21.51,50,17,12.2-2.1,24.45-12.9,24.37-13s-.18.1-.37,0c-1.11-.33-.23-6.38,0-8,.94-6.64,1-13.38,2-20,1-6.46.32-14.64-1-31-2.12-26.27-5.06-32.53-7-36-2.48-4.47-4.89-8.78-10-12-11.67-7.37-26.86-2.36-31-1a71.39,71.39,0,0,0-9,4,304.63,304.63,0,0,0-39,23c-6.36,4.39-12.69,8.75-16,12a78.26,78.26,0,0,1-8,7C1025.32,194.67,1025.3,194.68,1025.2,194.77Z" transform="translate(-591.23 -145.47)"/><path class="cls-9" d="M938.68,458.4a100.07,100.07,0,0,0-10-21,104.35,104.35,0,0,0-21-24c-23.32-20.12-57.07-37.06-65-41-47-23.35-72-35.6-110-45-14.58-3.61-26.79-5.75-35-7a456,456,0,0,0,24,54,459.59,459.59,0,0,0,73,102,59.7,59.7,0,0,0,27,17,58.86,58.86,0,0,0,23,2,160.32,160.32,0,0,0,94-37Z" transform="translate(-591.23 -145.47)"/><path class="cls-9" d="M983.68,371.4c5.43-16.14,11.18-26.19,28-54,0,0,49.06-81.13,92-111,3.44-2.39,9-5.73,14-4,6.43,2.21,8.8,11.58,10,18,5.17,27.47-.24,57.92-7,99-.65,4-3.82,23.24-10,48-4.3,17.22-6.34,22.23-9,27-8.08,14.49-19.28,22.17-31,30-14.76,9.87-34.53,23.09-61,22-10.82-.45-20.85-.86-28-8C966.31,423,977.49,389.8,983.68,371.4Z" transform="translate(-591.23 -145.47)"/><rect class="cls-10" x="884.27" y="376.03" width="29.83" height="15.74" rx="7.87" transform="translate(-133.43 -633.97) rotate(40.04)"/><rect class="cls-10" x="955.08" y="351.26" width="29.83" height="15.74" rx="7.87" transform="translate(737.9 -756.34) rotate(90)"/><path class="cls-7" d="M1109.68,440.4a19,19,0,0,1,4-12c4.69-5.75,12.91-8.08,21-6a19.57,19.57,0,0,1-6,14C1120.81,443.67,1110.14,440.54,1109.68,440.4Z" transform="translate(-591.23 -145.47)"/><path class="cls-7" d="M986.59,273.36a18.89,18.89,0,0,1-.47-12.64c2.37-7,9.26-12.1,17.56-13A19.65,19.65,0,0,1,1003,263C998.16,272.52,987.06,273.33,986.59,273.36Z" transform="translate(-591.23 -145.47)"/><path class="cls-7" d="M1019.68,268.4c-2.79-1.91-2.09-7.77-1.08-11,2.74-8.85,13.1-15.4,17.08-13,3.21,1.93,2.68,9.9-.23,15.22C1031.79,266.29,1023.25,270.83,1019.68,268.4Z" transform="translate(-591.23 -145.47)"/><path class="cls-7" d="M1115.84,462.4c-.41-3.55,4.81-6.94,8.12-8.31,9-3.75,21.56.21,22.4,5.07.67,3.9-6.13,8.86-12.45,10.09C1126,470.79,1116.36,466.94,1115.84,462.4Z" transform="translate(-591.23 -145.47)"/><path class="cls-7" d="M1108.76,491.54c1.16-3.38,7.33-4.19,10.91-4,9.78.51,19.36,9.49,18,14.23-1.07,3.81-9.34,5.35-15.57,3.74C1114.3,503.48,1107.28,495.86,1108.76,491.54Z" transform="translate(-591.23 -145.47)"/><path class="cls-7" d="M846.14,589.46c-2.92-2.05-2-8.21-.81-11.6,3.21-9.25,14.48-16,18.67-13.36,3.36,2.09,2.55,10.46-.73,16C859.15,587.45,849.88,592.08,846.14,589.46Z" transform="translate(-591.23 -145.47)"/><path class="cls-7" d="M813.68,571.88c-2.34-2.69.06-8.44,2-11.44,5.36-8.21,17.92-12,21.35-8.46,2.76,2.84,0,10.76-4.57,15.35C826.79,573.08,816.68,575.33,813.68,571.88Z" transform="translate(-591.23 -145.47)"/><path class="cls-7" d="M804.7,532.19c-.54-3.53,4.56-7.11,7.82-8.6,8.91-4.08,21.55-.57,22.56,4.25.82,3.88-5.79,9.08-12.07,10.53C815.14,540.2,805.39,536.7,804.7,532.19Z" transform="translate(-591.23 -145.47)"/><path class="cls-11" d="M991.68,455.4c-3.37-3.52-9.54-2.38-17-1a51.74,51.74,0,0,0-22,9c-6.68,4.82-13.42,9.67-13,16,.49,7.26,10.11,11.67,13,13,10.64,4.88,21.07,2.23,25,1a27.53,27.53,0,0,0,13-12c2.53-4.86,2.79-9.28,3-13C994,462.35,994.28,458.11,991.68,455.4Z" transform="translate(-591.23 -145.47)"/><line class="cls-12" x1="389.46" y1="362.93" x2="385.46" y2="347.93"/><path class="cls-12" d="M963.68,527.4a63.37,63.37,0,0,1,7-12c3.91-5.27,5.87-7.9,9.4-9.26,4.71-1.8,9.25-.25,16.6,2.26a69,69,0,0,1,13,6" transform="translate(-591.23 -145.47)"/><circle class="cls-13" cx="284.96" cy="299.43" r="34"/><path class="cls-14" d="M899.18,443.75a22.64,22.64,0,0,1-44.55,5.68c1.49-.85,3.74-2.11,6.55-3.53,4.16-2.11,5.76-2.67,6-4,.35-2-2.49-4-4-5l-5.61-5.48a23.67,23.67,0,0,1,12.15-9.26,22.67,22.67,0,0,1,29.46,21.59Z" transform="translate(-591.23 -145.47)"/><path class="cls-15" d="M873.18,431.9c2.31-.67,6.43,4.64,8,10,1.44,4.88,1.2,11.27-1,12-2,.68-5.15-3.79-6-5s-4.38-6.65-3-13C871.57,434.12,872,432.24,873.18,431.9Z" transform="translate(-591.23 -145.47)"/><circle class="cls-13" cx="426.96" cy="257.43" r="34"/><path class="cls-16" d="M1042.18,401.75a22.64,22.64,0,0,1-44.55,5.68c1.49-.85,3.74-2.11,6.55-3.53,4.16-2.11,5.76-2.67,6-4,.35-2-2.49-4-4-5l-5.61-5.48a23.67,23.67,0,0,1,12.15-9.26,22.67,22.67,0,0,1,29.46,21.59Z" transform="translate(-591.23 -145.47)"/><path class="cls-15" d="M1015.18,389.9c2.31-.67,6.43,4.64,8,10,1.44,4.88,1.2,11.27-1,12-2,.68-5.15-3.79-6-5s-4.38-6.65-3-13C1013.57,392.12,1014,390.24,1015.18,389.9Z" transform="translate(-591.23 -145.47)"/><path class="cls-7" d="M780.5,319.62c1.11-3.4,7.27-4.31,10.85-4.18,9.79.36,19.51,9.17,18.25,13.94-1,3.83-9.25,5.5-15.51,4C786.24,331.47,779.09,324,780.5,319.62Z" transform="translate(-591.23 -145.47)"/><path class="cls-7" d="M811.06,303c1.11-3.4,7.27-4.31,10.85-4.18,9.79.36,19.51,9.17,18.25,13.94-1,3.83-9.25,5.5-15.51,4C816.8,314.89,809.65,307.39,811.06,303Z" transform="translate(-591.23 -145.47)"/><path class="cls-2" d="M1117.93,457.7" transform="translate(-591.23 -145.47)"/><path class="cls-11" d="M779.87,709.56c-1.27-16.69-13.33-30.2-28.61-32.84-12.55-2.18-25.59,3.26-33.67,13.91,11.13,3.18,17,8.44,20.23,12.36,9.44,11.49,6.7,27.42,8.64,58.81,1.24,20.09.3,23.12,2.16,34.4,2.73,16.58,7.41,26,8.88,28.78,7,13.26,14.52,13.5,19.44,13.76a18.32,18.32,0,0,0,10.85-3.12l15.78-55.06c.1-7.18-.11-22.26-3.6-37.53C793.58,715.05,781.6,710.19,779.87,709.56Z" transform="translate(-591.23 -145.47)"/><path class="cls-17" d="M717.59,690.63a36.21,36.21,0,0,1,22-14c15.1-2.88,26.33,5.3,28.11,6.65,9.12,8.83,19.55,21.84,25.48,39.62.9,2.69,1.64,5.33,2.25,7.9-.54-1.24-4-8.87-10.84-10.17-3.2-.61-6.46.29-9,1-2.85.79-5.21,1.45-7,3-5.78,5-2.26,16.58-4,17-2.12.51-6.05-17.1-11-17-3.22.06-5.89,6.81-8,15-.09-4.62-.39-9.64-1-15-.52-4.65-1.22-9-2-13a34.28,34.28,0,0,0-7-11A35.27,35.27,0,0,0,717.59,690.63Z" transform="translate(-591.23 -145.47)"/><path class="cls-3" d="M822.77,641" transform="translate(-591.23 -145.47)"/><path class="cls-4" d="M803.76,634.85" transform="translate(-591.23 -145.47)"/><path class="cls-18" d="M748,787.45a106.19,106.19,0,0,0,6.49,19.39c1.93,4.14,4.81,10.19,9.18,13.14,1.77,1.19,6.71,4.31,12.32-1.88,6.53-7.23,8.28-17.52,8.28-17.52,1.79-11.63,6.92-32.39,14.37-61q2,11,4,22A37.43,37.43,0,0,0,795.05,774a40.49,40.49,0,0,0-1.65,19.75c1.1,8.93.6,22.76-6.81,43.93a41.21,41.21,0,0,1-10,1.11,24.67,24.67,0,0,1-6.91-.67c-3.89-1.28-8.38-4.62-12.57-13.09-2-4-5.64-12.72-8.29-28.78C748.55,793.28,748.25,790.37,748,787.45Z" transform="translate(-591.23 -145.47)"/><path class="cls-17" d="M811.29,744A168.67,168.67,0,0,0,781,839.05a24.55,24.55,0,0,0,5.25,13.78,23.31,23.31,0,0,0,5.63,5c-3.91,7.83-2.51,12.7-1.87,14.39,3.86,10.28,20.56,12.2,28.77,13.14a61.36,61.36,0,0,0,13.14,0c4.37-.43,6.56-.64,9.39-1.88,3.47-1.51,5.85-3.67,9.38-6.88a70.15,70.15,0,0,0,5-5L867,871a37.58,37.58,0,0,0,11.88,9.39c8.22,4.08,15.7,3.9,21.9,3.75,5.45-.13,11.71-.35,18.77-3.75,3.69-1.79,9.32-4.5,11.88-10.64a17.14,17.14,0,0,0,1.25-7.51,19.44,19.44,0,0,0,4.38-2.5c6.43-4.85,8-12.27,8.49-15a194.13,194.13,0,0,0-2.86-31.29c-7.4-42.49-27.57-73.79-42.48-92.52Z" transform="translate(-591.23 -145.47)"/><path class="cls-19" d="M869,826.09l-16.42-.16c.4,3,1,7.81,1.87,13.76,1.34,9.66,1.67,11.71,1.88,15a85.72,85.72,0,0,1-.63,16.89L867,871a39.84,39.84,0,0,1-3.13-13.14c-.13-2.05-.17-5.25,1.87-16.26C866.43,837.69,867.49,832.39,869,826.09Z" transform="translate(-591.23 -145.47)"/><path class="cls-19" d="M811.29,814a84.25,84.25,0,0,0,6.25,20c1.12,2.44,2.29,4.71,3.49,6.79a40.21,40.21,0,0,1-4.74,3.85A40.88,40.88,0,0,1,801.9,851,124.77,124.77,0,0,0,811.29,814Z" transform="translate(-591.23 -145.47)"/><path class="cls-19" d="M913.88,790.27a143.28,143.28,0,0,0-10,43.79c-.28,4.24-.35,8.3-.26,12.16a26.17,26.17,0,0,1,19,3.48,25.71,25.71,0,0,1,10,12.51,20.87,20.87,0,0,0,12.87-17.5,19,19,0,0,1-5.36-.64C918.44,838.25,914.28,794.84,913.88,790.27Z" transform="translate(-591.23 -145.47)"/><path class="cls-19" d="M795.43,830.57a60.69,60.69,0,0,1-.41,7.87,4.43,4.43,0,0,1-1.25,3.13,3.44,3.44,0,0,1-3.13.62c-2.16-.69-2.78-3.84-3.13-5.63a15.89,15.89,0,0,1,.63-8.13,4.27,4.27,0,0,1,3.13-1.88A4.44,4.44,0,0,1,795.43,830.57Z" transform="translate(-591.23 -145.47)"/><path class="cls-18" d="M878,755.6a87.87,87.87,0,0,1,37.78,10.9,86.27,86.27,0,0,1,18.54,13.93,228.42,228.42,0,0,0-18.12-36.53,225.06,225.06,0,0,0-13-19,136,136,0,0,0-15,16A137.39,137.39,0,0,0,878,755.6Z" transform="translate(-591.23 -145.47)"/><path class="cls-19" d="M924.19,788.59c1-.45,2.65.74,3.43,1.57,2.13,2.25,2.26,6.2.86,6.88-1.12.55-3.38-.95-4.44-2.65C922.71,792.26,922.85,789.15,924.19,788.59Z" transform="translate(-591.23 -145.47)"/><path class="cls-19" d="M928.59,809.89c1.35-.2,2.85,1.66,3.5,2.85,1.79,3.24.76,7.85-1.07,8.22-1.47.29-3.63-2.12-4.34-4.4C925.78,813.69,926.88,810.14,928.59,809.89Z" transform="translate(-591.23 -145.47)"/><path class="cls-19" d="M941,822.55c1.13-.23,2.33,1.39,2.83,2.44,1.39,2.88.34,7.09-1.21,7.49-1.25.32-3-1.78-3.49-3.82C938.45,826.1,939.51,822.84,941,822.55Z" transform="translate(-591.23 -145.47)"/><path class="cls-18" d="M814.59,747.63c5.91-7.8,21.83-5.57,30-3,20.8,6.54,37.2,29.71,32,42-4.76,11.27-23.93,4.51-37,20-12.16,14.42-6.31,33-12,34s-16.36-16.21-16-34c.17-8.31,2.6-8.58,4-19C818.61,765.11,808.74,755.35,814.59,747.63Z" transform="translate(-591.23 -145.47)"/><path class="cls-20" d="M955.43,693.82s-1-.46-8.8-12c-11.5,20.43-23.79,31.65-33.21,38.18-4.86,3.37-12.06,7-19.44,15.46-11.61,13.26-15.73,22.33-15.73,22.33a61.1,61.1,0,0,1-4.07,6.09c-2.31,3.05-3.62,4.17-5,5a16,16,0,0,1-2,1,24.15,24.15,0,0,1-8,1.41,76.61,76.61,0,0,1-27.06-2.41c-8-2.62-15-6.9-23.12-11.8l-1.27-.78h0c-16.15-10-9.18-30.43-21.37-58.87-4.28-10-8.22-16.15-13.6-31.42a86.34,86.34,0,0,1-3.19-11.76c-3.37-16.4-4.39-38.15-4.44-38.64l-7.07,4.69c-10.45,6.91-15.68,10.37-17.28,9.78-7.27-2.71-9.42-53.87,22.12-84.29,14.16-13.67,39.66-27.54,58.08-19.9,10.77,4.45,18.61,14,18.61,14a49.59,49.59,0,0,1,8,13.63,92.9,92.9,0,0,1,44,7.06,91.9,91.9,0,0,1,26.64,17.4c7-3.05,12.55-5.79,16.3-7.71,7.35-3.78,9.68-5.39,14.28-6.59a41.86,41.86,0,0,1,15.73-.62c18.27,3.21,28.5,27.91,30.93,33.79s11.6,29,2.06,55.5C988.07,678.43,964,697.89,955.43,693.82Z" transform="translate(-591.23 -145.47)"/><path class="cls-17" d="M859.38,669.33c.4-.44.9-.92,1.18-.79,1,.48-2.58,8.24-4.15,15.49-1,4.6-3.8,17.53,2.17,26.69,5.79,8.88,14.39,5.88,19.92,15.51,3.39,5.9,3,12,2.71,16.87a45.09,45.09,0,0,1-7.3,21.43,13,13,0,0,1-1.35,2,10.11,10.11,0,0,1-3.38,2.41,24.57,24.57,0,0,1-6.84,2c-15.09,1.67-30.2-2-30.2-2-11.57-2.82-16.4-6-19-8a30.25,30.25,0,0,1-4.16-3.8,31,31,0,0,1-7.54-18.32c-.6-12.43,7-20.67,8.59-22.28a26.32,26.32,0,0,1,10.6-7c9.52-3.18,14.45,2.14,21.05-1.13,1.41-.7,4.19-2.42,10.17-17.05A198.88,198.88,0,0,0,859.38,669.33Z" transform="translate(-591.23 -145.47)"/><path class="cls-18" d="M741.18,629.9a111.76,111.76,0,0,1,99-90c-4-4.62-14.69-15.36-30-16a40.12,40.12,0,0,0-10,1c-3,.61-18.22,4-34,18-3.2,2.84-26.87,24.47-30,57-.9,9.42-1,28.83,4,30A2.38,2.38,0,0,0,741.18,629.9Z" transform="translate(-591.23 -145.47)"/><rect class="cls-21" x="830.31" y="610.96" width="18.66" height="9.85" rx="4.92" transform="translate(55.9 -552.94) rotate(43.09)"/><rect class="cls-21" x="893.24" y="627.07" width="18.66" height="9.85" rx="4.92" transform="translate(1323.45 922.05) rotate(168.28)"/><path class="cls-18" d="M866,716.07c-.69-3-4.37-4.33-8.82-6a32.36,32.36,0,0,0-14.71-2.18c-5.14.45-10.31.91-12.1,4.45-2.06,4.06,1.7,9.51,2.84,11.14,4.16,6,10.62,7.93,13.12,8.53a17.24,17.24,0,0,0,10.83-2.3,18.84,18.84,0,0,0,5.77-6C865,720.56,866.49,718.36,866,716.07Z" transform="translate(-591.23 -145.47)"/><line class="cls-12" x1="251.89" y1="595.59" x2="254.53" y2="586.25"/><circle class="cls-22" cx="224.94" cy="498.55" r="26.77"/><circle class="cls-22" cx="313.15" cy="524" r="26.77"/><path class="cls-17" d="M830,660.07a39.77,39.77,0,0,1-14.12-.81c-4.09-1-8.43-2-12.15-5.51-5.94-5.54-9.21-16.22-4.86-21.39,2.29-2.72,6-3.06,8.83-3.32,5.5-.5,14.13.9,19.79,8.08A22.06,22.06,0,0,1,830,660.07Z" transform="translate(-591.23 -145.47)"/><path class="cls-18" d="M854.66,743.51c-4,7.24-10.82,12.19-17.79,12.07-10.35-.19-20.84-11.58-19.7-26.7a70.63,70.63,0,0,0,24.63,12.39A69.37,69.37,0,0,0,854.66,743.51Z" transform="translate(-591.23 -145.47)"/><path class="cls-21" d="M828.88,650.27A14.16,14.16,0,0,1,801.5,644c1.06-.18,2.65-.43,4.61-.65,2.9-.34,4-.32,4.39-1,.63-1.08-.59-2.91-1.27-3.8l-2.1-4.43a14.66,14.66,0,0,1,9.13-2.8,13.74,13.74,0,0,1,4.23.86A14.16,14.16,0,0,1,828.88,650.27Z" transform="translate(-591.23 -145.47)"/><path class="cls-15" d="M818.24,641c1.22.83,1.51,4.18.66,6.42-.77,2-2.72,3.77-3.9,3s-1.19-3.37-1.21-4.1,0-3.85,2.42-5.07C816.89,640.9,817.61,640.54,818.24,641Z" transform="translate(-591.23 -145.47)"/><path class="cls-11" d="M875.13,742.9a81.46,81.46,0,0,1-36.21-5.55c-2-.82-3.83-1.66-5.49-2.51a84.58,84.58,0,0,1-9.2-5.55c-9.94-7-24.72-22.88-25.52-22.22-.54.45,5,8.93,12.92,16.89,4.39,4.4,8.59,8.55,15.33,12a67.42,67.42,0,0,0,16.71,5.38c2.91.49,4,.39,13.09.78C862.51,742.36,875.13,742.94,875.13,742.9Z" transform="translate(-591.23 -145.47)"/><path class="cls-23" d="M830.88,737l-6.66,6.67q-.21-5.19-.4-10.38Z" transform="translate(-591.23 -145.47)"/><path class="cls-11" d="M857.65,701.43" transform="translate(-591.23 -145.47)"/><path class="cls-11" d="M792.52,711.37a30.87,30.87,0,0,1,5-3.52c2.92-1.64,4.33-1.78,5.11-1.79a7.72,7.72,0,0,1,2.48.37,7.3,7.3,0,0,0-8,.22A16.79,16.79,0,0,0,792.52,711.37Z" transform="translate(-591.23 -145.47)"/><path class="cls-18" d="M955.18,693.9a100.14,100.14,0,0,0,17-50,95.54,95.54,0,0,0-3.6-31.72s-5.54-18.76-25.4-46.28h0l5-2a33.84,33.84,0,0,1,23,1c10.58,4.6,15.75,14.55,21.27,25.19.44.85,1.33,2.59,2.21,4.61,9,20.56,6.52,42.2,6.52,42.2-2,17.75-11.94,47.09-35,55A37.92,37.92,0,0,1,955.18,693.9Z" transform="translate(-591.23 -145.47)"/><path class="cls-18" d="M895.27,562.31c-1.42,1.63-5,6.12-3.69,10.2.79,2.49,2.72,3.13,9.79,7.08,9.55,5.34,11.58,8,13.92,6.89.76-.37,2.87-1.77,2.89-8.54l16.3-7.71c11,21.17,32.59,70.32,12.15,111.61a78.4,78.4,0,0,1-4.72,8.23c-.21-3.41-.55-8.44-1.15-14.52-.09-.92-1.29-13-2.32-18.83-5.71-32.11-37.66-46.68-38.1-46.73s-1-.07-1-.07c-4.24.19-7.47,2.53-10.22,5-7,6.18-10.53,9.28-13.42,13.89A49.25,49.25,0,0,0,870,641.89c-3.45,11.91-8.21,28.26-13.8,48.23l-.43-.25-.43-.26q6.66-28.08,13.3-56.16c-1.24,3.26-3.16,8.57-5.12,15.29-2.06,7.06-2.89,11.31-5.53,22.35-1,4-2.44,10-4.37,17.5l-.86-.51c3.61-14.8,6.13-26.55,7.81-34.83a81,81,0,0,0,1.65-11.17,73.21,73.21,0,0,0-2.57-24.72c-2.11-8.38-3.78-14.64-8.54-16.28a7.29,7.29,0,0,0-1.56-.37c-22.15-2.84-34.39-.5-34.39-.5-9,1.93-15,5.08-22.17,8.79a131.8,131.8,0,0,0-27.3,19c-.37-8-.56-12.35-.56-12.35h0S786,590.09,807.2,569a394.44,394.44,0,0,1,32.91-29.18l7.47,13.64c-.57,2.25-2.07,9.18,1.46,12.49,1.28,1.2,2.16.91,17.25.42,4-.13,5.61-.41,7.46-1.56,3.78-2.35,5-6.73,5.45-8.82,2.39.68,4.95,1.52,7.64,2.56A89.49,89.49,0,0,1,895.27,562.31Z" transform="translate(-591.23 -145.47)"/><path class="cls-18" d="M749.81,636.25" transform="translate(-591.23 -145.47)"/><path class="cls-18" d="M832.87,833.26" transform="translate(-591.23 -145.47)"/><path class="cls-17" d="M808.28,633.3c-1.92-.7-4,.76-4.35,1-3,2.13-4.67,7.27-2.29,9.73,2,2.07,6.42,1.77,8.58-.65C813,640.26,811.25,634.37,808.28,633.3Z" transform="translate(-591.23 -145.47)"/><path class="cls-17" d="M883.16,673.16a43.6,43.6,0,0,0,13.29,6.24c4.21,1.15,8.67,2.37,13.71,1.21,8-1.87,16.06-9.47,14.53-16.08-.81-3.47-4-5.56-6.51-7.2-4.8-3.13-13.34-6.17-21.91-2.75A20.82,20.82,0,0,0,883.16,673.16Z" transform="translate(-591.23 -145.47)"/><path class="cls-21" d="M888.84,665.27c-1,7.66,4.69,14.91,12.68,16.18a14,14,0,0,0,15.33-8.18,11.85,11.85,0,0,0-.46-11.34,16.06,16.06,0,0,0-7-6.9,15.19,15.19,0,0,0-4.27-1.33C897.09,652.43,889.82,657.61,888.84,665.27Z" transform="translate(-591.23 -145.47)"/><path class="cls-15" d="M902.94,662.47c-1.5.12-3.34,2.87-3.62,5.22-.26,2.15.71,4.6,2.15,4.52s2.67-2.33,3-2.94,1.83-3.32.17-5.57C904.22,663.07,903.73,662.41,902.94,662.47Z" transform="translate(-591.23 -145.47)"/><path class="cls-17" d="M899.16,658.94c1.46,1.52,1,3.94.86,4.39-.75,3.55-4.88,7-8.19,5.69-2.78-1.09-4.35-5.28-3-8.16C890.64,657.11,896.91,656.59,899.16,658.94Z" transform="translate(-591.23 -145.47)"/><path class="cls-24" d="M855.7,741.9c5.77,10.32,3.24,21-3.22,24.69a13.73,13.73,0,0,1-13.46-.46c-6.75-4.19-9.28-15.35-3.49-26,2.62.41,5.37.77,8.23,1.06q2.55.25,5.22.45C851.29,741.74,853.53,741.85,855.7,741.9Z" transform="translate(-591.23 -145.47)"/><polygon class="cls-25" points="252.84 595.48 257.1 595.82 254.69 611.21 252.84 595.48"/></svg>